PathFileType	4	(X/Y/Z)	/Users/itak/Documents/Research/Walk-IL/dataset/trc/00354_00011.trc
DataRate	CameraRate	NumFrames	NumMarkers	Units	OrigDataRate	OrigDataStartFrame	OrigNumFrames
100.000000	100.000000	4	54	mm	100.000000	541	867
Frame#	Time	RPSI			LPSI			L3			STRN			T10			C7			CLAV			RBAK			LBAK			LSHO			LUPA			LAEL			LAOL			LWTS			LWPS			LFRA			LIFD			LHPS			LHTS			RSHO			RUPA			RAEL			RAOL			RWTS			RWPS			RFRA			RIFD			RHTS			RHPS			RBHD			LFHD			RFHD			LBHD			RHIP			RASI			LASI			LKNE			LTHI			LANK			LTIP			LTOE			LMT1			LMT5			LHEE			RKNE			RANK			RTIP			RTOE			RMT1			RMT5			RHEE			LHIP			RTHI			*53			
		X1	Y1	Z1	X2	Y2	Z2	X3	Y3	Z3	X4	Y4	Z4	X5	Y5	Z5	X6	Y6	Z6	X7	Y7	Z7	X8	Y8	Z8	X9	Y9	Z9	X10	Y10	Z10	X11	Y11	Z11	X12	Y12	Z12	X13	Y13	Z13	X14	Y14	Z14	X15	Y15	Z15	X16	Y16	Z16	X17	Y17	Z17	X18	Y18	Z18	X19	Y19	Z19	X20	Y20	Z20	X21	Y21	Z21	X22	Y22	Z22	X23	Y23	Z23	X24	Y24	Z24	X25	Y25	Z25	X26	Y26	Z26	X27	Y27	Z27	X28	Y28	Z28	X29	Y29	Z29	X30	Y30	Z30	X31	Y31	Z31	X32	Y32	Z32	X33	Y33	Z33	X34	Y34	Z34	X35	Y35	Z35	X36	Y36	Z36	X37	Y37	Z37	X38	Y38	Z38	X39	Y39	Z39	X40	Y40	Z40	X41	Y41	Z41	X42	Y42	Z42	X43	Y43	Z43	X44	Y44	Z44	X45	Y45	Z45	X46	Y46	Z46	X47	Y47	Z47	X48	Y48	Z48	X49	Y49	Z49	X50	Y50	Z50	X51	Y51	Z51	X52	Y52	Z52	X53	Y53	Z53	X54	Y54	Z54	

542	5.41	612.056396484375	927.9662475585938	6.204372882843018	740.1005859375	941.5368041992188	8.702372550964355	683.353271484375	995.4334716796875	2.391289234161377	674.697021484375	1168.818481445312	234.9701843261719	704.7568969726562	1111.576171875	-4.424186229705811	715.5401611328125	1358.146728515625	49.46646499633789	681.821533203125	1296.699340820312	199.2217712402344	657.9130859375	1221.666870117188	-16.88143920898438	816.7827758789062	1321.180786132812	53.96747207641602	855.6277465820312	1336.68798828125	146.975341796875	931.82373046875	1222.390014648438	148.6028594970703	980.5798950195312	1032.809204101562	207.9147338867188	931.9599609375	994.6572875976562	149.2677001953125	948.3231201171875	855.6802978515625	390.316162109375	1006.235168457031	831.0397338867188	360.9038391113281	997.6993408203125	942.881591796875	258.6694946289062	949.4127807617188	717.0298461914062	469.6298522949219	1004.278564453125	767.9540405273438	392.3016052246094	967.7476196289062	794.2227172851562	438.8433532714844	546.136474609375	1344.49951171875	72.346435546875	487.8068542480469	1285.143188476562	37.65471267700195	454.48828125	1027.642822265625	-25.66315078735352	548.99609375	1016.606689453125	-23.96240234375	433.2160339355469	783.3192749023438	48.17648696899414	389.1871948242188	782.526123046875	-15.28257179260254	431.7015075683594	958.8856811523438	-22.05598068237305	429.9489135742188	613.0756225585938	10.50793075561523	410.5292663574219	678.1392211914062	41.68405151367188	385.9427490234375	695.7429809570312	-21.93328285217285	630.5191650390625	1566.35302734375	95.32164764404297	671.9065551757812	1549.114624023438	300.4586181640625	583.1843872070312	1549.842163085938	250.1290893554688	768.0652465820312	1565.475952148438	140.5652008056641	509.069580078125	873.35302734375	92.41687774658203	558.9810180664062	902.962646484375	193.9473571777344	799.4508056640625	899.4931030273438	212.8682098388672	858.244140625	450.5335693359375	12.71939468383789	863.5443115234375	579.0194702148438	56.25369262695312	840.5873413085938	99.77482604980469	-259.7374877929688	865.1322631835938	267.9660034179688	-124.6017532348633	846.4440307617188	33.55136489868164	-67.21938323974609	782.971923828125	31.82947158813477	-112.7634506225586	890.3746337890625	43.54242706298828	-158.4734954833984	765.7271728515625	106.591682434082	-268.9849243164062	553.0574951171875	436.6725769042969	280.61962890625	609.4239501953125	39.0936279296875	362.3149719238281	563.5933227539062	328.97998046875	325.3138732910156	567.5404052734375	85.31733703613281	547.9701538085938	626.7466430664062	60.81567764282227	522.5426025390625	544.5936889648438	47.1512336730957	442.4290771484375	673.9668579101562	31.76011657714844	341.921630859375	852.90771484375	888.0697021484375	83.89362335205078	506.2677307128906	689.2064819335938	215.8609466552734	nan	nan	nan	
543	5.42	610.1484985351562	928.4771118164062	17.09938621520996	738.4345703125	941.4702758789062	20.35187149047852	681.6207885742188	994.9508666992188	13.81096839904785	670.9744262695312	1169.356689453125	244.9782562255859	703.1136474609375	1110.96435546875	5.953807353973389	712.8206787109375	1357.94921875	58.6134033203125	678.1671752929688	1297.129150390625	208.5621337890625	655.9088134765625	1220.903198242188	-7.427678108215332	814.0565795898438	1321.245483398438	63.83435821533203	852.4396362304688	1336.824584960938	157.1303100585938	928.084228515625	1222.047729492188	158.8654327392578	975.19921875	1031.761108398438	217.2272491455078	926.5851440429688	994.2174072265625	158.0868225097656	939.6883544921875	853.5791625976562	398.0430297851562	998.201171875	829.1325073242188	369.657470703125	991.2473754882812	941.5899658203125	267.6240844726562	938.6219482421875	714.0404663085938	475.9585266113281	995.39794921875	765.6695556640625	400.4413146972656	957.8129272460938	791.5286254882812	446.4131164550781	543.2681274414062	1344.0478515625	80.30593109130859	485.320068359375	1284.176147460938	45.60116958618164	453.768798828125	1025.900024414062	-15.92720794677734	548.3048095703125	1015.457458496094	-13.81101989746094	434.0683288574219	782.3382568359375	60.56586837768555	390.0503540039062	780.4382934570312	-2.824278116226196	431.4393310546875	956.9983520507812	-11.76514720916748	432.2281494140625	611.67919921875	25.15743255615234	412.3641662597656	676.9636840820312	55.47809219360352	387.5931396484375	693.5036010742188	-8.371580123901367	627.6533813476562	1566.593627929688	103.4121170043945	667.639892578125	1549.808837890625	308.9148864746094	579.1278686523438	1550.401245117188	257.8422241210938	764.8060302734375	1565.841918945312	149.5387115478516	506.4789428710938	874.0955200195312	102.7430419921875	556.1573486328125	903.5115356445312	204.3535919189453	796.3277587890625	899.3052368164062	224.888427734375	857.9173583984375	450.5818481445312	26.24273490905762	862.435302734375	578.70166015625	69.48543548583984	843.3138427734375	106.1209487915039	-255.0572357177734	866.5575561523438	271.3499145507812	-115.6412658691406	846.9114379882812	33.72227478027344	-67.53488922119141	783.9279174804688	33.27713775634766	-111.9264373779297	892.292236328125	44.53727340698242	-156.6153717041016	768.7218017578125	114.7363510131836	-264.5939331054688	550.8908081054688	436.5709838867188	289.2988891601562	609.865966796875	39.66452789306641	364.1846008300781	562.2908325195312	328.1831359863281	333.5205688476562	568.3433837890625	78.66780853271484	552.0584716796875	627.4072265625	54.58762359619141	525.6438598632812	545.6583251953125	44.69488906860352	445.1632080078125	674.4945068359375	32.83356857299805	343.9370727539062	850.9075927734375	887.9807739257812	96.04921722412109	503.1993103027344	689.3428955078125	225.7583312988281	nan	nan	nan	
544	5.43	608.2645874023438	929.3704833984375	27.87606239318848	736.7847290039062	941.6328735351562	32.0185546875	679.7622680664062	994.8397216796875	25.35415840148926	667.1946411132812	1170.186645507812	254.9686584472656	701.4002075195312	1110.651123046875	16.42476272583008	710.1011352539062	1358.036987304688	67.79350280761719	674.4512329101562	1297.832763671875	217.8864593505859	653.8698120117188	1220.416137695312	2.030207395553589	811.3101196289062	1321.583129882812	73.76108551025391	849.2137451171875	1337.239868164062	167.3445587158203	924.259765625	1221.965454101562	169.1628875732422	969.6663208007812	1030.95458984375	226.4756622314453	921.1055908203125	994.1370849609375	166.7629241943359	931.0852661132812	851.4407348632812	405.4052734375	990.1378784179688	827.2100830078125	377.9538879394531	984.6699829101562	940.4660034179688	276.3799133300781	928.0428466796875	710.931396484375	481.6876220703125	986.5625610351562	763.3567504882812	408.0148315429688	947.9908447265625	788.7445068359375	453.4707336425781	540.3989868164062	1343.893310546875	88.22286224365234	482.8179016113281	1283.5	53.52983093261719	453.0030822753906	1024.437133789062	-6.042988777160645	547.543212890625	1014.56298828125	-3.416844844818115	434.5465087890625	781.7620239257812	73.16892242431641	390.7255859375	778.7261352539062	9.765607833862305	431.08935546875	955.4331665039062	-1.32904326915741	433.8385314941406	610.6904907226562	40.21845626831055	413.61865234375	676.2598266601562	69.54082489013672	388.9162902832031	691.6957397460938	5.408718109130859	624.6910400390625	1567.108764648438	111.5135955810547	663.26220703125	1550.722290039062	317.3609313964844	574.9686279296875	1551.167602539062	265.5571899414062	761.4542846679688	1566.500122070312	158.5236206054688	503.7461242675781	875.1702270507812	112.8040466308594	553.0641479492188	904.3369140625	214.5283813476562	792.8250732421875	899.3500366210938	236.9676513671875	857.611328125	450.5846557617188	40.9985237121582	861.2021484375	578.3599243164062	83.62649536132812	846.3258666992188	112.9933090209961	-249.3324737548828	868.1494140625	274.9373168945312	-105.4961624145508	847.4383544921875	33.7902717590332	-67.75650024414062	784.9869995117188	34.86066055297852	-110.7314605712891	894.2850341796875	45.62968826293945	-154.3482818603516	771.9725341796875	123.3781280517578	-258.98583984375	548.7181396484375	436.78271484375	297.6103820800781	610.129150390625	40.50322723388672	366.1303405761719	560.9194946289062	327.8187866210938	341.520751953125	569.5377197265625	72.48615264892578	556.1345825195312	628.45556640625	49.05397796630859	528.5778198242188	546.8176879882812	42.69233703613281	448.0335083007812	674.744873046875	34.14567565917969	345.7643432617188	848.6674194335938	887.9401245117188	108.5797119140625	499.9371032714844	689.4154663085938	235.0041198730469	nan	nan	nan	
545	5.44	606.4869384765625	930.615966796875	38.42957305908203	735.196533203125	942.0209350585938	43.62417984008789	677.8087768554688	995.113525390625	36.91936874389648	663.34814453125	1171.29443359375	264.9131469726562	699.6368408203125	1110.647094726562	26.95674324035645	707.4212036132812	1358.401000976562	76.99852752685547	670.6904296875	1298.785034179688	227.1683197021484	651.8524169921875	1220.224487304688	11.48206520080566	808.5731811523438	1322.185180664062	83.76145172119141	845.9525756835938	1337.92822265625	177.6257934570312	920.3778686523438	1222.166015625	179.5256042480469	963.9937744140625	1030.414428710938	235.6720428466797	915.5543212890625	994.4725952148438	175.2813873291016	922.5494384765625	849.281005859375	412.4137573242188	982.0582885742188	825.2853393554688	385.7692565917969	977.9893188476562	939.5311889648438	284.9364624023438	917.730224609375	707.7334594726562	486.8323059082031	977.7879638671875	761.02099609375	415.0158386230469	938.33837890625	785.8941650390625	460.0148620605469	537.572509765625	1344.04931640625	96.07683563232422	480.3448181152344	1283.15673828125	61.39879989624023	452.2026977539062	1023.296569824219	3.979587316513062	546.7265625	1013.975219726562	7.1944260597229	434.6609497070312	781.624755859375	85.96646881103516	391.1893615722656	777.4385986328125	22.47713088989258	430.6595458984375	954.2352905273438	9.255248069763184	434.8137512207031	610.1423950195312	55.63370132446289	414.3246154785156	676.0447998046875	83.83667755126953	389.9010925292969	690.3551025390625	19.38089942932129	621.6541137695312	1567.859130859375	119.6034622192383	658.776123046875	1551.81982421875	325.7665100097656	570.7306518554688	1552.109497070312	273.2549438476562	758.03076171875	1567.408447265625	167.5094146728516	500.9562683105469	876.565673828125	122.4564514160156	549.7064819335938	905.4349975585938	224.3743591308594	788.967529296875	899.6541748046875	249.0245513916016	857.3382568359375	450.5114440917969	56.99655151367188	859.8776245117188	577.9855346679688	98.65848541259766	849.6653442382812	120.3890228271484	-242.4314880371094	869.9201049804688	278.6564636230469	-94.06399536132812	848.0293579101562	33.69180679321289	-67.79277801513672	786.1407470703125	36.60665512084961	-109.1124572753906	896.3263549804688	46.89037704467773	-151.5774078369141	775.5152587890625	132.4115295410156	-252.0233001708984	546.4591674804688	437.3226928710938	305.6253662109375	610.18603515625	41.42973327636719	368.0216369628906	559.440673828125	327.7959899902344	349.237548828125	570.9171142578125	66.81201934814453	559.9599609375	629.744140625	44.35755157470703	531.1944580078125	547.9193725585938	41.04571914672852	450.8146057128906	674.7150268554688	35.52510070800781	347.3233642578125	846.1627197265625	887.902587890625	121.4722061157227	496.5467224121094	689.540771484375	243.5929718017578	nan	nan	nan	
